:SAMPLES-PER-SECOND 30
:FULLY-SPECIFIED
:DEGREES
220
root  -2.43359 40.9588 1.35663 4.96597 -86.9411 -3.79991
RightUpLeg  3.05437 -1.13685 -0.904861
RightLeg  -2.70509 -19.9303 1.26693
RightFoot  -0.732495 -0.290286 3.00445
RightToes  -3.10678e-008 1.75238e-005 3.56266e-009
Spine  -3.38831 -1.285 -4.80973
Spine1  4.24217 -2.20725 5.46215
HEad  -9.96257 2.04588 -0.357306
LeftShoulder1  1.13264 -0.581357 -21.3321
LeftArm  -3.20133 -63.1759 -72.6873
LeftForeArm  67.5863 -35.4105 -4.34745
LeftHand  -0.878473 -0.872578 16.3753
RightShoulder  3.91183 7.93526 28.2305
RightArm  -41.7854 -54.3017 52.0486
RightForeArm  79.5977 7.05289 -0.0151619
RightHand  0.479614 3.90215 5.72048
LeftUpLeg  0.676724 0.91422 1.72835
LeftLeg  -0.381167 10.8437 -0.861474
LeftFoot  -0.908099 0.155037 -1.65631
LeftToes  4.76857e-008 1.46588e-008 1.31384e-009
221
root  -2.39724 40.9588 1.3565 3.69283 -87.0143 -2.44852
RightUpLeg  2.91638 -1.1462 -0.97211
RightLeg  -2.73862 -19.846 1.22509
RightFoot  -0.630779 -0.292761 3.04181
RightToes  -3.10678e-008 1.75238e-005 3.56266e-009
Spine  -3.30545 -0.933486 -4.8814
Spine1  4.04121 -1.89624 5.81184
HEad  -9.8374 1.43543 -0.294603
LeftShoulder1  1.07286 -0.364684 -21.3265
LeftArm  -1.17516 -62.6844 -72.7355
LeftForeArm  66.6718 -36.4996 -4.64043
LeftHand  -0.912413 -1.00933 16.6495
RightShoulder  3.92413 7.94825 28.3006
RightArm  -41.3163 -53.9861 52.1724
RightForeArm  78.1009 7.32574 0.495642
RightHand  0.443067 3.9545 5.22924
LeftUpLeg  0.514081 0.89504 1.67251
LeftLeg  -0.331076 10.916 -0.936806
LeftFoot  -0.879938 0.147229 -1.54061
LeftToes  4.76857e-008 1.46588e-008 1.31384e-009
222
root  -2.37184 40.9592 1.34248 2.84909 -86.4597 -1.61111
RightUpLeg  3.01923 -1.15409 -0.962017
RightLeg  -2.89355 -20.3607 1.28687
RightFoot  -0.592307 -0.295466 3.09616
RightToes  -3.10678e-008 1.75238e-005 3.56266e-009
Spine  -3.05557 -0.818973 -5.48541
Spine1  3.64828 -1.98794 7.04159
HEad  -9.80921 1.39661 -0.74801
LeftShoulder1  1.23876 -0.786781 -22.5636
LeftArm  -0.541036 -60.0935 -70.4329
LeftForeArm  66.5257 -37.633 -4.92018
LeftHand  -0.930961 -1.25537 16.3768
RightShoulder  3.84115 7.84766 27.8645
RightArm  -40.4466 -51.6991 52.1427
RightForeArm  77.2888 7.44659 0.817627
RightHand  0.459469 4.1779 5.29244
LeftUpLeg  0.363603 0.835068 1.65898
LeftLeg  -0.222259 10.4558 -0.894073
LeftFoot  -0.852046 0.152628 -1.61774
LeftToes  4.76857e-008 1.46588e-008 1.31384e-009
223
root  -2.34333 40.9598 1.33033 1.31293 -85.7048 -0.158401
RightUpLeg  3.19081 -1.26094 -1.03092
RightLeg  -2.9793 -20.9332 1.36381
RightFoot  -0.591898 -0.283973 2.9739
RightToes  -3.10678e-008 1.75238e-005 3.56266e-009
Spine  -3.85156 -0.566995 -5.47872
Spine1  4.80685 -1.71129 6.81575
HEad  -9.89637 -0.285814 -0.248907
LeftShoulder1  1.4562 -1.5057 -22.7577
LeftArm  0.695747 -56.4305 -69.8546
LeftForeArm  66.7338 -37.8155 -4.95811
LeftHand  -0.941718 -1.47042 16.0405
RightShoulder  3.83527 7.51797 28.8498
RightArm  -37.8664 -47.5573 51.0191
RightForeArm  74.7941 7.9929 1.98321
RightHand  0.418758 4.35409 4.70059
LeftUpLeg  0.389219 0.680836 1.54024
LeftLeg  -0.369619 9.90211 -0.832546
LeftFoot  -0.696081 0.152387 -1.59151
LeftToes  4.76857e-008 1.46588e-008 1.31384e-009
224
root  -2.28925 40.9604 1.32119 -0.030014 -85.1924 0.961243
RightUpLeg  3.30477 -1.3076 -1.06599
RightLeg  -2.78245 -21.3405 1.23839
RightFoot  -0.596849 -0.259558 2.71513
RightToes  -3.10678e-008 1.75238e-005 3.56266e-009
Spine  -3.45048 -0.284982 -5.69192
Spine1  4.50441 -1.50004 7.25725
HEad  -9.61075 -1.76637 -0.317241
LeftShoulder1  1.70191 -2.17186 -23.7387
LeftArm  1.31282 -50.5454 -68.4073
LeftForeArm  66.8679 -37.7715 -4.94164
LeftHand  -0.835685 -1.13267 15.018
RightShoulder  3.72987 7.12637 29.1511
RightArm  -35.414 -42.0534 49.5986
RightForeArm  72.1907 7.91817 2.85278
RightHand  0.345547 4.59999 3.72178
LeftUpLeg  0.589585 0.491501 1.37238
LeftLeg  -0.57312 9.63614 -0.731922
LeftFoot  -0.597562 0.164536 -1.71152
LeftToes  4.76857e-008 1.46588e-008 1.31384e-009
225
root  -2.23853 40.9619 1.31398 -2.21576 -84.8264 2.83499
RightUpLeg  3.48779 -1.42965 -1.21324
RightLeg  -2.52099 -21.4899 1.07491
RightFoot  -0.6327 -0.252494 2.64957
RightToes  -3.10678e-008 1.75238e-005 3.56266e-009
Spine  -3.32658 -0.0544451 -5.88058
Spine1  4.71489 -1.31795 7.50997
HEad  -9.6452 -2.27227 -0.304873
LeftShoulder1  1.98688 -2.89537 -24.857
LeftArm  1.07208 -43.5542 -67.015
LeftForeArm  68.249 -36.6684 -4.61978
LeftHand  -0.868324 -1.78062 14.2047
RightShoulder  3.66777 6.77916 29.7525
RightArm  -33.9369 -34.8941 48.0937
RightForeArm  69.1151 7.08621 3.00335
RightHand  0.183914 4.43639 1.8844
LeftUpLeg  1.15354 0.293412 1.13451
LeftLeg  -1.25424 9.5629 -0.752913
LeftFoot  -0.339236 0.180395 -1.85247
LeftToes  4.76857e-008 1.46588e-008 1.31384e-009
